<?xml version="1.0" standalone="no"?>
<!DOCTYPE svg PUBLIC "-//W3C//DTD SVG 20010904//EN"
 "http://www.w3.org/TR/2001/REC-SVG-20010904/DTD/svg10.dtd">
<svg version="1.0" xmlns="http://www.w3.org/2000/svg"
 width="210.000000pt" height="210.000000pt" viewBox="0 0 210.000000 210.000000"
 preserveAspectRatio="xMidYMid meet">
<metadata>
Created by potrace 1.11, written by Peter Selinger 2001-2013
</metadata>
<g transform="translate(0.000000,210.000000) scale(0.100000,-0.100000)"
fill="#000000" stroke="none">
<path d="M608 2033 c-29 -38 -57 -73 -63 -79 -12 -13 -47 -57 -141 -174 -37
-47 -70 -87 -74 -90 -3 -3 -50 -61 -104 -130 -54 -69 -105 -130 -112 -136 -8
-6 -14 -16 -14 -22 0 -6 -3 -12 -7 -14 -5 -1 -27 -26 -51 -55 l-42 -51 2 -338
3 -337 30 44 c16 24 32 46 35 49 3 3 39 52 80 110 41 58 78 110 83 115 11 14
112 154 139 193 13 18 30 41 38 52 8 11 27 36 42 57 111 155 209 290 217 300
6 7 11 17 11 23 0 5 4 10 8 10 5 0 22 21 39 48 17 26 40 57 50 69 10 13 41 54
68 93 28 39 85 118 127 176 l76 105 54 -73 c30 -40 76 -104 103 -143 27 -38
52 -72 56 -75 3 -3 18 -23 32 -45 24 -38 346 -489 364 -510 5 -5 31 -41 58
-80 27 -38 53 -74 58 -80 4 -5 80 -111 168 -234 l159 -223 0 350 0 351 -112
138 c-62 76 -117 143 -123 149 -5 7 -19 24 -30 40 -11 15 -27 35 -36 43 -8 9
-33 38 -55 66 -21 27 -43 55 -49 61 -5 6 -23 28 -40 49 -73 91 -98 122 -118
145 -12 14 -39 46 -60 73 l-37 47 -389 0 -389 0 -54 -67z"/>
<path d="M695 1425 c-44 -164 -7 -320 107 -451 18 -21 28 -35 22 -31 -19 11
-67 19 -145 22 -92 5 -146 -17 -181 -73 -30 -48 -33 -134 -8 -200 32 -84 49
-118 65 -132 14 -12 15 -10 9 21 -7 35 -6 78 1 139 6 51 43 80 96 75 51 -5
135 -47 197 -98 55 -46 168 -145 194 -170 37 -35 160 -109 214 -128 171 -60
340 35 368 208 4 25 3 26 -7 8 -23 -37 -84 -91 -126 -110 -38 -17 -49 -17 -99
-7 -31 7 -58 16 -60 22 -2 5 -9 10 -16 10 -12 0 -74 59 -76 72 0 4 -7 23 -15
42 -44 105 15 276 105 308 87 30 123 14 126 -53 1 -24 -3 -52 -8 -61 -14 -28
15 -22 47 9 40 41 54 73 50 124 -3 53 -25 84 -75 105 -58 26 -125 20 -249 -20
-154 -50 -220 -47 -316 16 -49 32 -78 66 -115 139 -29 57 -67 188 -72 247 -4
49 -13 39 -33 -33z"/>
<path d="M995 1291 c-43 -26 -65 -64 -65 -113 0 -129 165 -181 235 -75 76 116
-54 259 -170 188z"/>
</g>
</svg>
